<?xml version="1.0" encoding="UTF-8"?>
<svg width="141px" height="134px" viewBox="0 0 141 134" version="1.1" xmlns="http://www.w3.org/2000/svg" xmlns:xlink="http://www.w3.org/1999/xlink">
    <!-- Generator: Sketch 40.2 (33826) - http://www.bohemiancoding.com/sketch -->
    <title>pies</title>
    <desc>Created with Sketch.</desc>
    <defs></defs>
    <g id="Page-1" stroke="none" stroke-width="1" fill="none" fill-rule="evenodd">
        <path d="M57,9.19 C17,13.06 -12,55 6.63,98.35 C11.9174565,110.677733 21.4863116,120.67637 33.57,126.5 C61.64,139.86 89.85,132.64 107.34,114.92 L63.09,70.67 L63.09,15 L63.09,8.82 C61.0541874,8.81335626 59.0200344,8.93694192 57,9.19 L57,9.19 Z M71,5.88 L71,61.37 L133.25,61.37 C133.25,29.04 108.59,3.17 77.04,0.13 C75.0223777,-0.00860675043 72.9976223,-0.00860675043 70.98,0.13 L71,5.88 Z M141,70.13 C141.031682,86.6478434 134.372089,102.474297 122.54,114 L79.77,70.17 L141,70.13 Z" id="pies" fill="#CCCCCB"></path>
    </g>
</svg>