<?xml version="1.0" encoding="UTF-8"?>
<svg width="433px" height="433px" viewBox="0 0 433 433" version="1.1" xmlns="http://www.w3.org/2000/svg" xmlns:xlink="http://www.w3.org/1999/xlink">
    <!-- Generator: Sketch 40.2 (33826) - http://www.bohemiancoding.com/sketch -->
    <title>pulse-search</title>
    <desc>Created with Sketch.</desc>
    <defs></defs>
    <g id="Page-1" stroke="none" stroke-width="1" fill="none" fill-rule="evenodd">
        <g id="pulse-search">
            <path d="M309.104492,272.062695 L289.315039,272.062695 L281.872852,264.620508 C306.567383,237.388867 321.451758,200.34707 321.451758,160.768164 C321.451758,71.715625 249.736133,0 160.768164,0 C71.8001953,0 0,71.715625 0,160.768164 C0,249.820703 71.715625,321.536328 160.768164,321.536328 C200.34707,321.536328 237.473438,306.651953 264.620508,281.957422 L272.062695,289.399609 L272.062695,309.189062 L395.704492,432.830859 L432.830859,395.704492 L309.104492,272.062695 L309.104492,272.062695 Z M160.768164,272.062695 C98.9472656,272.062695 49.4736328,222.589062 49.4736328,160.768164 C49.4736328,98.9472656 98.9472656,49.4736328 160.768164,49.4736328 C222.589062,49.4736328 272.062695,98.9472656 272.062695,160.768164 C272.062695,222.589062 222.589062,272.062695 160.768164,272.062695 L160.768164,272.062695 Z" id="Shape" fill="#CCCCCB"></path>
            <path d="M181.735947,38.9488575 C170.055547,32.2159765 155.664702,32.2159765 143.984303,38.9488575 L66.3375275,83.7153245 C54.6420476,90.4360851 47.4290091,102.878422 47.4179611,116.351171 L47.4179611,205.916861 C47.4199914,219.380595 54.615142,231.820839 66.2937829,238.552707 L143.940558,283.319174 C155.620958,290.052055 170.011803,290.052055 181.692202,283.319174 L259.338977,238.552707 C271.017618,231.820839 278.212769,219.380595 278.214799,205.916861 L278.214799,116.383927 C278.23352,102.917496 271.054682,90.4641374 259.382722,83.7153245 L181.735947,38.9488575 Z" id="Shape" fill="#FFFFFF"></path>
            <path d="M244.632264,95.5409912 L178.845995,57.6125799 C168.949771,51.9081431 156.75712,51.9081431 146.860896,57.6125799 L81.0746273,95.5409912 C71.1656262,101.235159 65.0543757,111.776935 65.0450153,123.191728 L65.0450153,162.970306 L99.7912841,162.970306 L133.064311,96.1237936 L169.95095,198.900537 L187.472335,164.01565 L206.874652,164.01565 C210.99265,153.763423 221.797416,147.849727 232.66921,149.897698 C243.541004,151.945668 251.444636,161.383552 251.5378,172.429055 C251.630964,183.474558 243.887651,193.043995 233.051943,195.274472 C222.216236,197.50495 211.313251,191.773764 207.022903,181.592231 L198.340968,181.592231 L167.263905,243.480297 L130.43286,140.934824 L110.706245,180.574639 L65.0450153,180.574639 L65.0450153,199.076303 C65.0467354,210.483459 71.1428303,221.023462 81.0375646,226.72704 L146.823834,264.655451 C156.720058,270.359888 168.912708,270.359888 178.808932,264.655451 L244.595201,226.72704 C254.489935,221.023462 260.58603,210.483459 260.587751,199.076303 L260.587751,123.219481 C260.603612,111.810041 254.521338,101.258926 244.632264,95.5409912 L244.632264,95.5409912 Z" id="Shape" fill="#3BAFD9"></path>
        </g>
    </g>
</svg>