<?xml version="1.0" encoding="UTF-8"?>
<svg width="107px" height="28px" viewBox="0 0 107 28" version="1.1" xmlns="http://www.w3.org/2000/svg" xmlns:xlink="http://www.w3.org/1999/xlink">
    <!-- Generator: Sketch 40.3 (33839) - http://www.bohemiancoding.com/sketch -->
    <title>logo</title>
    <desc>Created with Sketch.</desc>
    <defs></defs>
    <g id="Page-1" stroke="none" stroke-width="1" fill="none" fill-rule="evenodd">
        <g id="Desktop-HD" transform="translate(-958.000000, -3257.000000)">
            <g id="Footer" transform="translate(-2.000000, 3235.000000)">
                <g id="logo" transform="translate(960.000000, 22.000000)">
                    <g id="Layer_1">
                        <path d="M0.109834437,8.57367089 C0.109834437,8.39945651 0.251012991,8.25822785 0.425165563,8.25822785 L6.04089404,8.25822785 C7.56440397,8.25822785 8.71707506,8.6492827 9.49890728,9.43139241 C10.0848437,10.0074405 10.4066895,10.8001548 10.3882119,11.6217722 L10.3882119,11.6607595 C10.3939868,12.0215563 10.3401152,12.3808274 10.2287748,12.7240506 C10.0401525,13.2882152 9.68575708,13.7823214 9.21192053,14.1417722 L9.02768212,14.2764557 C8.93423401,14.3401111 8.88200295,14.4489407 8.8907859,14.5616952 C8.89956884,14.6744496 8.96802157,14.773872 9.07019868,14.8222785 C9.56217865,15.0418696 10.0100188,15.3493435 10.391755,15.7296203 C10.9034756,16.2959086 11.1653254,17.0446817 11.1180795,17.8065823 L11.1180795,17.8455696 C11.1279063,18.389831 11.0063684,18.9284349 10.7637748,19.4156962 C10.5307392,19.8691928 10.1901118,20.2586194 9.77172185,20.5498734 C9.30805931,20.8759188 8.78963218,21.1160165 8.24112583,21.2587342 C7.58327192,21.4239343 6.90689863,21.5037461 6.2286755,21.4962025 L0.425165563,21.4962025 C0.251012991,21.4962025 0.109834437,21.3549739 0.109834437,21.1807595 L0.109834437,8.57367089 L0.109834437,8.57367089 Z M5.56966887,13.8227848 C6.20444312,13.8535872 6.83453789,13.6997009 7.38370861,13.3797468 C7.83168779,13.0902279 8.09105593,12.5834697 8.06397351,12.0506329 L8.06397351,12.0081013 C8.08390781,11.524309 7.86047129,11.0626424 7.46874172,10.7782278 C6.95412871,10.4504645 6.34849393,10.2952775 5.7397351,10.3351899 L2.71043046,10.3351899 C2.53627789,10.3351899 2.39509934,10.4764185 2.39509934,10.6506329 L2.39509934,13.5179747 C2.39509934,13.6921891 2.53627789,13.8334177 2.71043046,13.8334177 L5.56966887,13.8334177 L5.56966887,13.8334177 L5.56966887,13.8227848 Z M6.24993377,19.3979747 C6.90408493,19.434053 7.55446391,19.2775616 8.12066225,18.9478481 C8.57264517,18.6502707 8.83187943,18.1343195 8.80092715,17.5939241 L8.80092715,17.5655696 C8.82263297,17.0422683 8.56848289,16.5458944 8.13129139,16.2577215 C7.50835162,15.9072164 6.79638258,15.7470281 6.0834106,15.796962 L2.71043046,15.796962 C2.53627789,15.796962 2.39509934,15.9381907 2.39509934,16.1124051 L2.39509934,19.0931646 C2.39509934,19.2673789 2.53627789,19.4086076 2.71043046,19.4086076 L6.25347682,19.4086076 L6.25347682,19.4086076 L6.24993377,19.3979747 Z" id="Shape" fill="#FFFFFF"></path>
                        <path d="M22.9660265,8.15189873 L24.6241722,8.15189873 C24.8198492,8.15189873 24.9784768,8.31058262 24.9784768,8.50632911 L24.9784768,21.1346835 C24.9784768,21.33043 24.8198492,21.4891139 24.6241722,21.4891139 L22.9660265,21.4891139 C22.7703494,21.4891139 22.6117219,21.33043 22.6117219,21.1346835 L22.6117219,8.50632911 C22.6117219,8.31058262 22.7703494,8.15189873 22.9660265,8.15189873 L22.9660265,8.15189873 Z" id="Shape" fill="#FFFFFF"></path>
                        <path d="M27.0936755,8.15189873 L28.7518212,8.15189873 C28.9474982,8.15189873 29.1061258,8.31058262 29.1061258,8.50632911 L29.1061258,21.1346835 C29.1061258,21.33043 28.9474982,21.4891139 28.7518212,21.4891139 L27.0936755,21.4891139 C26.8979984,21.4891139 26.7393709,21.33043 26.7393709,21.1346835 L26.7393709,8.50632911 C26.7393709,8.31058262 26.8979984,8.15189873 27.0936755,8.15189873 L27.0936755,8.15189873 Z" id="Shape" fill="#FFFFFF"></path>
                        <path d="M30.8705629,8.15189873 L32.0078808,8.15189873 C32.321732,8.15189873 32.6227287,8.2766199 32.844655,8.49862499 C33.0665814,8.72063008 33.1912583,9.02173359 33.1912583,9.3356962 L33.1912583,13.0607595 C33.5001947,12.7440331 33.8593397,12.4805666 34.2541722,12.2810127 C34.8034281,12.0076536 35.4127093,11.8772211 36.0256954,11.9017722 C36.5528253,11.8930489 37.0765181,11.9881901 37.5669205,12.1817722 C37.9997032,12.3542379 38.386589,12.6247901 38.6971523,12.9721519 C39.0082283,13.3311482 39.2432665,13.7495441 39.3880464,14.2020253 C39.553256,14.7124505 39.6346213,15.2463004 39.6289735,15.7827848 L39.6289735,21.1594937 C39.6289735,21.337623 39.4846224,21.4820253 39.3065563,21.4820253 L37.5952649,21.4820253 C37.4171988,21.4820253 37.2728477,21.337623 37.2728477,21.1594937 L37.2728477,21.1594937 L37.2728477,15.8040506 C37.305324,15.2937115 37.1288072,14.7921237 36.7839073,14.4146835 C36.4462831,14.0841681 35.9875331,13.9072687 35.5154967,13.9255696 C35.2052638,13.9240145 34.8983322,13.9892908 34.6155629,14.116962 C34.3446638,14.2424389 34.1032205,14.4235857 33.9069536,14.6486076 C33.7029739,14.8810896 33.543266,15.1489656 33.4357285,15.4389873 C33.3204195,15.749646 33.2627855,16.0787565 33.2656623,16.4101266 L33.2656623,21.1594937 C33.2656623,21.337623 33.1213111,21.4820253 32.943245,21.4820253 L31.1717219,21.4820253 C30.9936557,21.4820253 30.8493046,21.337623 30.8493046,21.1594937 L30.8493046,21.1594937 L30.8493046,8.15189873 L30.8493046,8.15189873 L30.8705629,8.15189873 Z" id="Shape" fill="#FFFFFF"></path>
                        <path d="M59.2503642,12.1002532 L60.7384437,12.1002532 C60.9495616,12.0999499 61.1239552,12.2650596 61.1352649,12.4759494 L61.1742384,13.1635443 C61.3094661,13.0209373 61.4525944,12.8860413 61.602947,12.7594937 C61.7866781,12.6006563 61.9875051,12.4627616 62.2017219,12.3483544 C62.4523069,12.2154051 62.7174393,12.1119311 62.9918212,12.04 C63.3180577,11.9557166 63.6540472,11.9151928 63.9909603,11.9194937 C65.1719757,11.9194937 66.0648234,12.2739241 66.6695033,12.9827848 C67.3173377,13.7810075 67.6456382,14.7915215 67.5906954,15.8182278 L67.5906954,21.0992405 C67.5906954,21.3302214 67.4035148,21.5174684 67.1726159,21.5174684 L65.652649,21.5174684 C65.4217501,21.5174684 65.2345695,21.3302214 65.2345695,21.0992405 L65.2345695,15.8040506 C65.2670458,15.2937115 65.0905291,14.7921237 64.7456291,14.4146835 C64.408005,14.0841681 63.9492549,13.9072687 63.4772185,13.9255696 C63.1669857,13.9240145 62.8600541,13.9892908 62.5772848,14.116962 C62.3063857,14.2424389 62.0649423,14.4235857 61.8686755,14.6486076 C61.6646958,14.8810896 61.5049879,15.1489656 61.3974503,15.4389873 C61.2821413,15.749646 61.2245074,16.0787565 61.2273841,16.4101266 L61.2273841,21.0637975 C61.2273841,21.2947783 61.0402036,21.4820253 60.8093046,21.4820253 L59.2893377,21.4820253 C59.0584388,21.4820253 58.8712583,21.2947783 58.8712583,21.0637975 L58.8712583,12.4972152 C58.8710465,12.2847174 59.0381535,12.1097396 59.2503642,12.1002532 L59.2503642,12.1002532 Z" id="Shape" fill="#FFFFFF"></path>
                        <path d="M51.9481457,12.0718987 L53.422053,12.0718987 C53.6357101,12.0734777 53.8111776,12.2412407 53.8224172,12.4546835 L53.8543046,13.2521519 C53.9816722,13.0969301 54.1189574,12.9501248 54.265298,12.8126582 C54.4446988,12.6435542 54.6432812,12.4960514 54.8569868,12.3731646 C55.1058703,12.2250552 55.3709852,12.1061274 55.6470861,12.0187342 C55.98169,11.9199292 56.3292688,11.8721351 56.6781126,11.876962 C56.8819229,11.8751809 57.0855934,11.888211 57.2875166,11.9159494 L57.5213576,11.9620253 C57.6934665,12.0117063 57.8014318,12.1820782 57.7729139,12.3589873 L57.4186093,13.918481 C57.3813268,14.0903797 57.216882,14.2036696 57.0430464,14.1772152 L56.8836093,14.1453165 C56.6876952,14.1169301 56.489864,14.1038946 56.2919205,14.1063291 C55.977872,14.1049143 55.6660339,14.1589054 55.3707285,14.2658228 C55.0879937,14.3657024 54.8287357,14.5225187 54.6089735,14.7265823 C54.1484312,15.1555139 53.8909757,15.7594611 53.9003642,16.3888608 L53.9003642,21.0602532 C53.9003685,21.166151 53.8580746,21.2676607 53.7828882,21.3422083 C53.7077017,21.4167558 53.6058561,21.4581607 53.5,21.4572152 L51.9268874,21.4572152 C51.8216439,21.4572152 51.7207109,21.4153925 51.6462925,21.3409477 C51.5718741,21.2665029 51.5300662,21.165534 51.5300662,21.0602532 L51.5300662,12.4759494 C51.5300662,12.2527984 51.7109017,12.0718987 51.9339735,12.0718987 L51.9339735,12.0718987 L51.9481457,12.0718987 Z" id="Shape" fill="#FFFFFF"></path>
                        <path d="M19.0367881,12.2455696 C18.841111,12.2455696 18.6824834,12.4042535 18.6824834,12.6 L18.6824834,17.1721519 C18.740799,18.2642806 17.9034555,19.1971078 16.811755,19.2562025 L16.2696689,19.2562025 C15.7443907,19.2571434 15.240253,19.0493053 14.8681607,18.6784103 C14.4960685,18.3075154 14.2865017,17.8039456 14.2855629,17.278481 L14.2855629,17.1686076 L14.2855629,12.6106329 C14.2855629,12.4148864 14.1269353,12.2562025 13.9312583,12.2562025 L12.460894,12.2562025 C12.265217,12.2562025 12.1065894,12.4148864 12.1065894,12.6106329 L12.1065894,17.6718987 C12.1065894,19.8693671 14.1190397,21.4005063 16.2448675,21.4182278 L16.7515232,21.4182278 C18.877351,21.3827848 20.8543709,19.8587342 20.8543709,17.6718987 L20.8543709,12.6106329 C20.8543709,12.4148864 20.6957433,12.2562025 20.5000662,12.2562025 L19.0509603,12.2562025 L19.0367881,12.2455696 Z" id="u" fill="#FFFFFF"></path>
                        <path d="M40.5714238,16.8212658 C40.5626837,16.1604495 40.683038,15.5042862 40.9257285,14.8896203 C41.402457,13.6820052 42.3466751,12.7182797 43.5440397,12.2172152 C44.8584622,11.6838409 46.3289219,11.6838409 47.6433444,12.2172152 C48.2386642,12.4629735 48.7793655,12.8243721 49.2341722,13.2805063 C49.6906797,13.740481 50.0518937,14.2861078 50.2970861,14.8860759 C51.0515413,16.7568636 50.6412819,18.8962384 49.2483444,20.3549367 C48.7976241,20.8230503 48.2563573,21.1944742 47.6575166,21.4465823 C46.3430941,21.9799565 44.8726344,21.9799565 43.5582119,21.4465823 C42.9593711,21.1944742 42.4181044,20.8230503 41.9673841,20.3549367 C41.0635177,19.4014752 40.5633048,18.1352588 40.5714238,16.8212658 L40.5714238,16.8212658 Z M45.6131788,19.8020253 C46.0227936,19.8124166 46.4284646,19.7197981 46.7930132,19.5326582 C47.1178002,19.3597695 47.4007893,19.1178126 47.6220861,18.8237975 C47.8396147,18.5344784 48.0050706,18.209446 48.1110265,17.8632911 C48.3236379,17.1885146 48.3236379,16.4646499 48.1110265,15.7898734 C48.0076751,15.4426714 47.8419931,15.1171949 47.6220861,14.8293671 C47.399476,14.5365898 47.1167824,14.2948855 46.7930132,14.1205063 C46.0476095,13.7605522 45.1787482,13.7605522 44.4333444,14.1205063 C44.1095129,14.2947944 43.8268014,14.536514 43.6042715,14.8293671 C43.3842973,15.1171526 43.2186088,15.442642 43.1153311,15.7898734 C42.9027197,16.4646499 42.9027197,17.1885146 43.1153311,17.8632911 C43.2212197,18.2094732 43.3866813,18.5345168 43.6042715,18.8237975 C43.8254841,19.1178918 44.1084923,19.359865 44.4333444,19.5326582 C44.7964613,19.7205903 45.200895,19.8144229 45.6096358,19.8055696 L45.6096358,19.8055696 L45.6131788,19.8020253 Z" id="Shape" fill="#FFFFFF"></path>
                        <path d="M96.8952318,24.4096203 C96.5409272,23.9772152 96.1263907,23.5696203 96.0342715,22.8926582 C95.9740397,22.4602532 95.6303642,22.1412658 95.3788079,21.7974684 C95.2193709,21.5812658 95.1981126,21.4855696 94.8119205,20.8794937 C94.7753693,20.8059219 94.7339414,20.7348774 94.6879139,20.6668354 C94.6148324,20.4900684 94.4496568,20.3685325 94.2592053,20.3513924 C92.9943377,20.2131646 90.7763907,19.8232911 89.8197682,19.4227848 C89.7170199,19.3837975 90.1740728,19.9331646 90.2236755,20.0359494 C90.2494024,20.0813062 90.2777966,20.1250962 90.3087086,20.1670886 C90.8548255,20.9769795 91.6293126,21.6061651 92.5337417,21.9746835 C92.8561589,22.1093671 93.1821192,22.2227848 93.5045364,22.3503797 C94.0015097,22.5343504 94.3969344,22.920896 94.5922517,23.4136709 C94.686081,23.6457014 94.8526917,23.8409787 95.0670199,23.9701266 C95.400466,24.1830169 95.6380657,24.5172997 95.7295695,24.9022785 L95.7756291,25.0121519 C96.9944371,27.1848101 96.3637748,26.7027848 96.6720199,27.5321519 L96.6720199,27.556962 C96.6868287,27.7415571 96.8412026,27.8836315 97.0263245,27.883038 C97.2258121,27.945876 97.4397839,27.945876 97.6392715,27.883038 C97.6980923,27.8620501 97.7347643,27.8033541 97.7278477,27.7412658 C97.6992367,27.66067 97.7199709,27.5707899 97.7809934,27.5108861 C97.8443454,27.4824226 97.9183147,27.4920146 97.9723179,27.5356962 C98.0786093,27.7164557 98.1459272,27.5994937 98.2557616,27.5605063 C98.4860596,27.4258228 98.7234437,27.4435443 98.7234437,27.1493671 C98.4905239,26.4969397 98.1762545,25.8765137 97.7880795,25.3027848 C97.5188079,24.9696203 97.1609603,24.7321519 96.8952318,24.4096203 L96.8952318,24.4096203 Z" id="Shape" fill="#F16B24"></path>
                        <path d="M106.702384,16.2116456 C106.660024,16.1805461 106.632953,16.1328331 106.62798,16.0805063 C106.62798,15.8501266 106.528775,15.9210127 106.440199,15.9777215 C106.142583,16.1762025 105.752848,16.2470886 105.660728,16.7432911 C105.625509,16.8369704 105.550056,16.9098478 105.455232,16.9417722 C104.682848,17.3989873 103.828974,16.8531646 103.619934,15.7402532 C103.522986,15.1673488 103.361333,14.6073069 103.138079,14.0708861 C103.014073,13.7873418 102.649139,13.4081013 102.471987,13.1103797 C102.441602,13.0612547 102.424509,13.0050706 102.422384,12.9473418 C102.385141,12.3132824 102.016061,11.745991 101.451589,11.4551899 L101.451589,11.4551899 C100.41702,10.7037975 98.2203311,9.92405063 97.0440397,9.56962025 C96.9207988,9.50257864 96.7711904,9.50628317 96.6514161,9.57934219 C96.5316418,9.65240122 96.4598387,9.78375163 96.4629801,9.92405063 C96.4572317,9.95807095 96.4572317,9.99281513 96.4629801,10.0268354 L96.5480132,10.278481 C96.8279139,11.3417722 97.1857616,12.8162025 96.9802649,12.7594937 C96.7747682,12.7027848 96.2149669,9.61924051 94.9288411,8.73316456 L94.9040397,8.71189873 C94.0643377,7.9356962 92.3211589,7.57063291 91.715298,7.44658228 C91.6390734,7.43083198 91.5711174,7.38802967 91.5239735,7.32607595 C91.1696689,6.86531646 90.6382119,6.72708861 89.7985099,6.58886076 C89.4442053,6.5321519 89.1501325,6.48962025 88.8950331,6.45772152 C88.7036825,6.42185017 88.5771094,6.23825414 88.6115894,6.04658228 L88.6115894,6.02531646 L88.6115894,6.02531646 C88.647128,5.93396616 88.6365806,5.83109251 88.583245,5.74886076 C88.439495,5.76410055 88.2972751,5.79136904 88.1580795,5.83037975 C88.0723463,5.83141725 87.9879105,5.8093827 87.9136093,5.76658228 C87.8746358,5.74177215 87.970298,5.82683544 87.9136093,5.7878481 C87.4282119,5.32708861 88.6222185,4.90531646 88.3706623,4.88759494 L88.0978477,4.88759494 C87.7660834,4.88104553 87.4343299,4.90119485 87.1057947,4.9478481 C87.0724536,4.95171386 87.039246,4.93959894 87.0162205,4.91516922 C86.9931949,4.8907395 86.9830569,4.85686558 86.9888742,4.82379747 C86.9909338,4.79101203 87.0096599,4.76157483 87.0384768,4.74582278 C87.90704,4.3166113 88.6575189,3.6814589 89.2245364,2.8956962 C89.2245364,2.8956962 89.7099338,2.10886076 88.5867881,1.59139241 C88.3198489,1.47330191 88.0405874,1.38533303 87.7541722,1.32911392 C86.8905063,1.14061809 86.0478073,0.866346898 85.2386093,0.510379747 C85.0012252,0.407594937 84.7886424,0.30835443 84.607947,0.216202532 L84.5193709,0.180759494 C84.4699257,0.158051166 84.4128841,0.158838742 84.3640843,0.182903543 C84.3152844,0.206968344 84.2799216,0.2517484 84.2678146,0.304810127 C84.1792384,0.521012658 84.4768543,0.63443038 84.6221192,0.754936709 C85.2882119,1.27240506 86.0393377,1.60202532 86.747947,2.04860759 C87.1837417,2.3321519 87.1943709,2.45620253 86.7975497,2.72911392 C86.2054412,3.10250958 85.5701089,3.40243573 84.9055629,3.62227848 C84.872741,3.63505751 84.8380109,3.64224561 84.8028146,3.6435443 C84.5063071,3.43857043 84.1401725,3.36072327 83.7859603,3.42734177 C83.1894461,3.45203835 82.6504382,3.79038584 82.3687417,4.31696203 C82.3065433,4.42893309 82.1845699,4.49410108 82.0569536,4.4835443 L81.9860927,4.4835443 C81.9437263,4.47848988 81.9009095,4.47848988 81.858543,4.4835443 C80.4413245,4.59341772 80.1543377,5.19240506 80.0870199,5.42632911 C80.0724837,5.4987942 80.0235671,5.55963103 79.9559272,5.58936709 C76.8982781,6.87949367 74.744106,5.91189873 74.0213245,5.48658228 L74.0213245,5.48658228 C73.9814759,5.46030334 73.9292229,5.46277623 73.8920323,5.49270108 C73.8548416,5.52262594 73.8412268,5.57315242 73.8583444,5.61772152 C74.5386093,7.34734177 78.0426821,7.48202532 79.024106,7.48556962 L79.1374834,7.48556962 C79.1733773,7.48524186 79.2073061,7.50193699 79.2289549,7.53057945 C79.2506037,7.55922191 79.257415,7.59642783 79.2473179,7.63088608 C79.0737368,8.15036625 78.8241968,8.64126249 78.5068212,9.08759494 C78.4126724,9.21570476 78.3397014,9.35810865 78.2906954,9.50936709 L78.3013245,9.56962025 C78.2129741,9.83537608 78.2129741,10.1225986 78.3013245,10.3883544 L78.3013245,10.3883544 C78.3202208,10.4531646 78.3202208,10.5220253 78.3013245,10.5868354 C78.2988263,10.6163184 78.2988263,10.64596 78.3013245,10.675443 C78.2950948,10.7236814 78.2950948,10.7725211 78.3013245,10.8207595 C78.4855629,11.9407595 79.0949669,12.1817722 79.0949669,12.1817722 C79.2568219,12.2361675 79.4293946,12.2507563 79.5980795,12.2243038 C80.554702,12.1782278 82.159702,11.9513924 82.5565232,11.923038 C82.5987565,11.916095 82.6418395,11.916095 82.6840728,11.923038 L82.7088742,11.923038 C82.7383362,11.9304102 82.7668641,11.941112 82.7939073,11.9549367 C84.1756954,12.6637975 86.2306623,14.9002532 86.9676159,16.2081013 L87.0951656,16.438481 C87.3949153,17.0644948 87.8409131,17.6091212 88.3954636,18.0263291 C88.5733692,18.1558786 88.7591463,18.27425 88.9517219,18.3807595 C89.2536654,18.5507714 89.5674444,18.6988329 89.8906291,18.8237975 C90.4197235,19.0338134 90.9632064,19.2055628 91.5168874,19.3377215 L91.8711921,19.4227848 C92.1829801,19.4901266 92.4664238,19.5291139 92.8207285,19.5751899 C94.156457,19.7488608 94.7764901,19.681519 95.0209603,20.1068354 C95.0530328,20.1850728 95.0790908,20.2656442 95.0989073,20.3478481 L95.0989073,20.3655696 C95.4284106,21.3225316 95.6339073,21.4288608 95.7827152,21.875443 C95.8249789,22.0558999 95.9598942,22.2003106 96.1370199,22.2546835 C96.4422799,22.3227938 96.6949799,22.5358782 96.8137417,22.8253165 C97.0437647,23.537521 97.6010436,24.0963156 98.3124503,24.3281013 C99.0742053,24.5407595 99.4214238,24.4734177 99.8784768,23.8389873 C100.048504,23.6383904 100.065824,23.3496217 99.9209934,23.1301266 C99.6857241,22.6908666 99.2445697,22.4002146 98.748245,22.3574684 C98.5112775,22.3585062 98.3052445,22.1950935 98.2522185,21.9640506 C98.2063119,21.6192771 98.0422751,21.3011082 97.7880795,21.0637975 C97.6767748,20.9622423 97.6211874,20.81327 97.6387485,20.6635958 C97.6563097,20.5139216 97.744869,20.381874 97.8766556,20.3088608 C98.265645,20.0046246 98.6700916,19.7207017 99.0883775,19.4582278 C99.205298,19.3979747 99.9139073,19.1392405 99.9139073,18.6607595 C99.8111589,17.4840506 100.002483,16.6475949 100.09106,16.6546835 C100.110105,17.0310062 100.149133,17.4060501 100.20798,17.7782278 C100.216293,17.8143251 100.226945,17.8498431 100.239868,17.884557 L100.239868,17.884557 C100.385132,18.7316456 101.391358,20.0572152 101.887384,20.6207595 C101.91186,20.6490025 101.931061,20.6814166 101.944073,20.7164557 C102.043673,20.9773344 102.177087,21.224 102.340894,21.4501266 C102.414107,21.557729 102.466947,21.6778641 102.496788,21.804557 C102.656225,22.7508861 103.106192,23.5767089 103.205397,24.5443038 C103.263403,24.8657577 103.285977,25.1926077 103.272715,25.5189873 C103.265537,25.5564523 103.265537,25.5949401 103.272715,25.6324051 C103.297517,25.8911392 103.379007,26.4688608 103.478212,26.518481 C103.748891,26.6326054 104.059582,26.596278 104.296656,26.4227848 C104.313389,26.4014007 104.323269,26.3754558 104.325,26.3483544 C104.367517,25.9336709 104.537583,26.1144304 104.622616,26.2243038 C104.646951,26.2574871 104.690331,26.2705059 104.728907,26.2562025 C104.898224,26.1981822 105.046301,26.0907877 105.154073,25.9478481 C105.169835,25.9295626 105.180794,25.9076363 105.18596,25.8840506 C105.275777,25.5408916 105.247061,25.1774418 105.10447,24.8526582 C104.956843,24.5662805 104.782457,24.2945206 104.583642,24.0410127 C104.079885,23.4464585 103.880889,22.6515007 104.045099,21.8896203 C104.126679,21.5401703 104.05162,21.1725068 103.839603,20.883038 C103.703675,20.694539 103.663085,20.4535329 103.729768,20.2308861 C103.894053,19.414633 103.935848,18.5784488 103.853775,17.7498734 C103.804471,17.6342416 103.815065,17.5017629 103.882119,17.395443 C103.98589,17.3363368 104.116329,17.3537348 104.200993,17.4379747 C104.667079,17.6694093 105.223269,17.6215626 105.643013,17.3139241 C105.744314,17.2328755 105.867912,17.1846551 105.997318,17.1756962 C106.377878,17.209802 106.726616,16.9616886 106.819305,16.5908861 C106.82483,16.454817 106.783563,16.3209647 106.702384,16.2116456 L106.702384,16.2116456 Z" id="Shape" fill="#F16B24"></path>
                    </g>
                </g>
            </g>
        </g>
    </g>
</svg>