<?xml version="1.0" encoding="UTF-8"?>
<svg width="102px" height="116px" viewBox="0 0 102 116" version="1.1" xmlns="http://www.w3.org/2000/svg" xmlns:xlink="http://www.w3.org/1999/xlink">
    <!-- Generator: Sketch 40.3 (33839) - http://www.bohemiancoding.com/sketch -->
    <title>Layer_1</title>
    <desc>Created with Sketch.</desc>
    <defs></defs>
    <g id="Page-1" stroke="none" stroke-width="1" fill="none" fill-rule="evenodd">
        <g id="Desktop-HD" transform="translate(-306.000000, -2684.000000)" fill="#93A7B2">
            <g id="bhi_lock" transform="translate(306.000000, 2684.000000)">
                <g id="Layer_1">
                    <path d="M92.3679287,39.1426834 L87.233853,39.1426834 L87.233853,35.7252865 L87.233853,34.758523 L87.233853,32.8025129 C87.233853,10.5669507 69.1282851,0.0674486216 50.8636971,0.0674486216 C32.5991091,0.0674486216 14.5389755,10.5669507 14.5389755,32.8025129 L14.5389755,34.758523 L14.5389755,35.7252865 L14.5389755,39.1426834 L9.38218263,39.1426834 C3.95278396,39.1426834 0,43.5493266 0,48.4281103 L0,106.051716 C0,111.425123 4.45256125,115.337143 9.38218263,115.337143 L92.3679287,115.337143 C97.7973274,115.337143 101.750111,110.9305 101.750111,106.051716 L101.750111,48.4281103 C102.227171,43.0547034 97.7973274,39.1426834 92.3679287,39.1426834 L92.3679287,39.1426834 Z M29.077951,35.7252865 L29.077951,34.758523 L29.077951,33.7917594 L29.077951,32.3303726 C29.077951,19.1104428 38.0285078,14.613868 50.8636971,14.613868 C63.6988864,14.613868 72.6948775,19.605066 72.6948775,32.3078897 L72.6948775,33.7692765 L72.6948775,34.7360401 L72.6948775,35.7028037 L72.6948775,39.1202005 L29.077951,39.1202005 L29.077951,35.7252865 L29.077951,35.7252865 Z M56.2930958,81.635315 L56.2930958,95.7995255 L43.9576837,95.7995255 L43.9576837,81.635315 C39.0280624,79.1846817 35.5750557,74.3058981 35.5750557,68.9324912 C35.5750557,61.1084511 41.9812918,54.7682807 49.8868597,54.7682807 C57.7924276,54.7682807 64.1986637,61.1084511 64.1986637,68.9324912 C64.1986637,74.3058981 61.2227171,79.1846817 56.2930958,81.635315 L56.2930958,81.635315 Z" id="Shape"></path>
                </g>
            </g>
        </g>
    </g>
</svg>