<?xml version="1.0" encoding="UTF-8"?>
<svg width="117px" height="50px" viewBox="0 0 117 50" version="1.1" xmlns="http://www.w3.org/2000/svg" xmlns:xlink="http://www.w3.org/1999/xlink">
    <!-- Generator: Sketch 40.3 (33839) - http://www.bohemiancoding.com/sketch -->
    <title>Group 14</title>
    <desc>Created with Sketch.</desc>
    <defs></defs>
    <g id="Page-1" stroke="none" stroke-width="1" fill="none" fill-rule="evenodd">
        <g id="Desktop-HD" transform="translate(-82.000000, -13.000000)">
            <g id="Header" transform="translate(-139.000000, -2.000000)">
                <g id="BullhornLogoandTextMF-01" transform="translate(221.000000, 15.000000)">
                    <g id="Group-14">
                        <g id="Group-3" transform="translate(54.000000, 6.000000)" fill="#FFFFFF">
                            <path d="M0.0664973996,0.486265986 C0.0664973996,0.379260746 0.151971564,0.29251586 0.257409289,0.29251586 L3.65735698,0.29251586 C4.57974026,0.29251586 5.27760545,0.532707963 5.75095253,1.01309217 C6.10569782,1.36691008 6.30055391,1.8538078 6.28936696,2.35845821 L6.28936696,2.38240486 C6.29286325,2.60401196 6.26024763,2.82468201 6.19283847,3.03549517 C6.07978795,3.38439837 5.86512795,3.69030106 5.57720126,3.91281316 L5.46565723,3.99553793 C5.40908066,4.03463611 5.37745825,4.10148098 5.38277574,4.17073656 C5.38809322,4.23999214 5.42953676,4.30105891 5.49139816,4.33079096 C5.7892591,4.46566732 6.06039632,4.65452266 6.29151204,4.88809469 C6.60132461,5.23591796 6.75985718,5.6958263 6.7312529,6.16379776 L6.7312529,6.18774441 C6.73720241,6.52203837 6.66361935,6.85285745 6.51674516,7.1521411 C6.37565767,7.43068594 6.16943061,7.66987791 5.91612349,7.84877077 C5.63525111,8.04826489 5.3213871,8.19499521 4.98945005,8.28198734 C4.59116355,8.3834559 4.18166479,8.43247757 3.77104608,8.42784418 L0.257409289,8.42784418 C0.151971564,8.42784418 0.0664973996,8.34109929 0.0664973996,8.23409405 L0.0664973996,0.486265986 L0.0664973996,0.486265986 Z M3.37206168,3.71035516 C3.756375,3.7292745 4.13785521,3.63475507 4.47034132,3.4382342 C4.74156273,3.26040706 4.89859277,2.94914814 4.88219618,2.62187131 L4.88219618,2.59574769 C4.89426507,2.2985948 4.7589892,2.01503182 4.52182317,1.8403399 C4.21025944,1.63902242 3.84358812,1.54370415 3.4750254,1.56821894 L1.64098422,1.56821894 C1.53554649,1.56821894 1.45007233,1.65496382 1.45007233,1.76196906 L1.45007233,3.52313594 C1.45007233,3.63014118 1.53554649,3.71688606 1.64098422,3.71688606 L3.37206168,3.71688606 L3.37206168,3.71035516 Z M3.78391655,7.13472536 C4.17996129,7.15688525 4.57372222,7.06076576 4.91651742,6.85825046 C5.19016282,6.67547368 5.34711181,6.35856824 5.32837228,6.0266488 L5.32837228,6.00923306 C5.3415137,5.68781308 5.18764284,5.38293236 4.92295265,5.20593197 C4.54580431,4.99064614 4.11475472,4.89225595 3.68309791,4.92292617 L1.64098422,4.92292617 C1.53554649,4.92292617 1.45007233,5.00967106 1.45007233,5.1166763 L1.45007233,6.94750614 C1.45007233,7.05451138 1.53554649,7.14125626 1.64098422,7.14125626 L3.78606162,7.14125626 L3.78391655,7.13472536 Z" id="Shape"></path>
                            <path d="M13.9043918,0.227206828 L14.908288,0.227206828 C15.0267573,0.227206828 15.1227957,0.324672993 15.1227957,0.444903599 L15.1227957,8.20143954 C15.1227957,8.32167014 15.0267573,8.41913631 14.908288,8.41913631 L13.9043918,8.41913631 C13.7859224,8.41913631 13.689884,8.32167014 13.689884,8.20143954 L13.689884,0.444903599 C13.689884,0.324672993 13.7859224,0.227206828 13.9043918,0.227206828 L13.9043918,0.227206828 Z" id="Shape"></path>
                            <path d="M16.4034069,0.227206828 L17.4073032,0.227206828 C17.5257725,0.227206828 17.6218109,0.324672993 17.6218109,0.444903599 L17.6218109,8.20143954 C17.6218109,8.32167014 17.5257725,8.41913631 17.4073032,8.41913631 L16.4034069,8.41913631 C16.2849376,8.41913631 16.1888992,8.32167014 16.1888992,8.20143954 L16.1888992,0.444903599 C16.1888992,0.324672993 16.2849376,0.227206828 16.4034069,0.227206828 L16.4034069,0.227206828 Z" id="Shape"></path>
                            <path d="M18.6900594,0.227206828 L19.3786293,0.227206828 C19.5686452,0.227206828 19.7508786,0.303812547 19.8852401,0.440171601 C20.0196016,0.576530654 20.0950852,0.761473219 20.0950852,0.954314042 L20.0950852,3.2423071 C20.2821255,3.0477687 20.4995637,2.88594342 20.7386084,2.76337421 C21.071146,2.59547272 21.4400251,2.51535902 21.8111471,2.53043866 C22.1302889,2.52508069 22.4473499,2.58351792 22.7442557,2.70241911 C23.0062767,2.80835033 23.2405101,2.97452777 23.4285354,3.18788291 C23.6168711,3.40838415 23.759171,3.66536955 23.8468255,3.9432907 C23.9468489,4.25680193 23.9961102,4.58470106 23.9926908,4.9142183 L23.9926908,8.21667831 C23.9926908,8.32608816 23.9052959,8.41478237 23.7974888,8.41478237 L22.7614164,8.41478237 C22.6536093,8.41478237 22.5662143,8.32608816 22.5662143,8.21667831 L22.5662143,4.92728011 C22.5858765,4.61382173 22.4790075,4.30573849 22.2701936,4.07390877 C22.0657848,3.87090093 21.7880424,3.76224653 21.5022559,3.77348722 C21.3144307,3.77253201 21.1286041,3.81262578 20.9574063,3.89104348 C20.793395,3.96811338 20.6472172,4.07937662 20.5283908,4.21758863 C20.4048947,4.36038278 20.3082023,4.52491647 20.2430955,4.70305243 C20.1732836,4.89386392 20.1383901,5.09600883 20.1401318,5.29954158 L20.1401318,8.21667831 C20.1401318,8.32608816 20.0527368,8.41478237 19.9449297,8.41478237 L18.8766812,8.41478237 C18.7688741,8.41478237 18.6814791,8.32608816 18.6814791,8.21667831 L18.6814791,0.227206828 L18.6900594,0.227206828 Z" id="Shape"></path>
                            <path d="M35.8721295,2.65234885 L36.773062,2.65234885 C36.9008797,2.65216259 37.0064634,2.75357558 37.0133107,2.88310743 L37.0369065,3.30543917 C37.1184743,3.2141221 37.2051346,3.12762708 37.2964609,3.04638001 C37.4076977,2.94881955 37.5292851,2.86412243 37.658979,2.79385175 C37.8106915,2.71219218 37.9712113,2.64863682 38.1373312,2.60445556 C38.3348456,2.55268734 38.5382647,2.52779701 38.7422431,2.53043866 C39.4572689,2.53043866 39.9978284,2.74813543 40.3639216,3.18352897 C40.7561419,3.67381004 40.9549059,4.29448378 40.9216417,4.92510314 L40.9216417,8.16878502 C40.9216417,8.31065714 40.8083164,8.42566721 40.6685226,8.42566721 L39.7482844,8.42566721 C39.6084905,8.42566721 39.4951652,8.31065714 39.4951652,8.16878502 L39.4951652,4.92728011 C39.5148274,4.61382173 39.4079584,4.30573849 39.1991445,4.07390877 C38.9947357,3.87090093 38.7169933,3.76224653 38.4312068,3.77348722 C38.2433816,3.77253201 38.057555,3.81262578 37.8863572,3.89104348 C37.7223459,3.96811338 37.5761681,4.07937662 37.4573417,4.21758863 C37.3338456,4.36038278 37.2371532,4.52491647 37.1720464,4.70305243 C37.1022345,4.89386392 37.067341,5.09600883 37.0690827,5.29954158 L37.0690827,8.15790018 C37.0690827,8.2997723 36.9557574,8.41478237 36.8159635,8.41478237 L35.8957253,8.41478237 C35.7559315,8.41478237 35.6426062,8.2997723 35.6426062,8.15790018 L35.6426062,2.89616924 C35.642478,2.76564971 35.7436501,2.65817556 35.8721295,2.65234885 L35.8721295,2.65234885 Z" id="Shape"></path>
                            <path d="M31.4511249,2.63493311 L32.3434771,2.63493311 C32.4728322,2.63590294 32.5790661,2.73894564 32.5858709,2.87004562 L32.6051766,3.35986336 C32.6822891,3.26452365 32.7654061,3.17435352 32.8540056,3.08991936 C32.9626207,2.98605295 33.0828491,2.89545443 33.2122335,2.81997537 C33.3629158,2.72900422 33.5234251,2.65595688 33.6905858,2.6022786 C33.893166,2.54159101 34.1036017,2.5122351 34.3148033,2.51519989 C34.4381968,2.5141059 34.5615057,2.52210918 34.6837566,2.53914653 L34.8253317,2.56744711 C34.9295321,2.59796198 34.9948979,2.70260708 34.9776322,2.8112675 L34.7631245,3.76913329 C34.7405524,3.87471621 34.6409921,3.94430067 34.5357463,3.92805193 L34.4392178,3.90845922 C34.3206049,3.89102385 34.2008314,3.88301728 34.0809898,3.88451258 C33.8908545,3.88364358 33.7020574,3.91680579 33.5232697,3.98247612 C33.3520927,4.0438238 33.1951294,4.14014283 33.0620781,4.26548192 C32.7832505,4.52893852 32.6273785,4.89989251 32.6330626,5.28647978 L32.6330626,8.15572322 C32.6330652,8.22076736 32.6074591,8.28311624 32.5619387,8.32890452 C32.5164183,8.37469281 32.4547576,8.40012435 32.3906688,8.3995436 L31.4403996,8.3995436 C31.3077139,8.3995436 31.2001509,8.2903815 31.2001509,8.15572322 L31.2001509,2.88310743 C31.200128,2.81614017 31.2267734,2.75200578 31.2740347,2.70527169 C31.321296,2.6585376 31.3851615,2.63317081 31.4511249,2.63493311 L31.4511249,2.63493311 Z" id="Shape"></path>
                            <path d="M11.5255009,2.74160453 C11.4070316,2.74160453 11.3109932,2.83907069 11.3109932,2.9593013 L11.3109932,5.76758964 C11.3286764,6.10149747 11.2101936,6.42807756 10.983374,6.670623 C10.7565544,6.91316844 10.4413858,7.05030554 10.1118949,7.04982362 L9.85019545,7.04982362 C9.52070452,7.05030554 9.20553594,6.91316844 8.97871633,6.670623 C8.75189671,6.42807756 8.63341395,6.10149747 8.65109718,5.76758964 L8.65109718,2.9658322 C8.65109718,2.8456016 8.5550588,2.74813543 8.43658944,2.74813543 L7.54638232,2.74813543 C7.42791296,2.74813543 7.33187458,2.8456016 7.33187458,2.9658322 L7.33187458,6.07454209 C7.33187458,7.42426207 8.55027855,8.36471212 9.83732499,8.37559695 L10.1440711,8.37559695 C11.4311175,8.35382728 12.6280707,7.41773116 12.6280707,6.07454209 L12.6280707,2.9658322 C12.6280707,2.8456016 12.5320323,2.74813543 12.413563,2.74813543 L11.5362263,2.74813543 L11.5255009,2.74160453 Z" id="u"></path>
                            <path d="M24.5632814,5.55206984 C24.5579898,5.14618593 24.6308563,4.74316002 24.7777891,4.36562244 C25.0664163,3.62388607 25.6380772,3.03195056 26.3630013,2.72418879 C27.1587962,2.39658185 28.0490611,2.39658185 28.8448559,2.72418879 C29.2052822,2.87513743 29.5326407,3.09711418 29.8079957,3.3772791 C30.0813013,3.6605775 30.2970423,3.99565735 30.4429386,4.36344547 C30.9019334,5.51084214 30.6569464,6.82465977 29.816576,7.72250664 C29.543695,8.01002947 29.2159942,8.23816392 28.8534362,8.3930127 C28.0576414,8.72061964 27.1673765,8.72061964 26.3715816,8.3930127 C26.0090236,8.23816392 25.6813228,8.01002947 25.4084419,7.72250664 C24.8612113,7.13687543 24.5583658,6.35914517 24.5632814,5.55206984 L24.5632814,5.55206984 Z M27.6157265,7.38289968 C27.8637209,7.38928214 28.1093275,7.33239442 28.3300373,7.21745013 C28.5266741,7.11125912 28.698005,6.96264539 28.8319854,6.78205659 C28.9636844,6.6043522 29.0638569,6.40471217 29.1280061,6.19209834 C29.1916287,5.98487595 29.2241691,5.76911839 29.2245346,5.55206984 C29.2233369,5.33722683 29.1908082,5.12374715 29.1280061,4.91857224 C29.0654338,4.70531525 28.9651244,4.50540243 28.8319854,4.32861399 C28.6972099,4.14878553 28.5260578,4.00032692 28.3300373,3.89322045 C27.8787452,3.67213091 27.3527079,3.67213091 26.9014158,3.89322045 C26.7053575,4.00027097 26.5341946,4.14873897 26.3994677,4.32861399 C26.266288,4.50537644 26.1659747,4.70529715 26.103447,4.91857224 C26.0406449,5.12374715 26.0081161,5.33722683 26.0069185,5.55206984 C26.0072188,5.76912348 26.0397606,5.9848909 26.103447,6.19209834 C26.1675554,6.4047289 26.2677313,6.60437584 26.3994677,6.78205659 C26.5333971,6.96269403 26.7047396,7.11131782 26.9014158,7.21745013 C27.1212588,7.33288098 27.3661163,7.3905145 27.6135815,7.38507665 L27.6157265,7.38289968 Z" id="Shape"></path>
                        </g>
                        <g id="Group-11">
                            <path d="M41.0401163,9.7125 L25.8744186,0.956686047 C23.6656977,-0.318895349 20.944186,-0.318895349 18.7354651,0.956686047 L3.56918605,9.7125 C1.36046512,10.9880814 0,13.3444767 0,15.8950581 L0,24.268314 L7.94186047,24.268314 L14.4075581,11.3322674 L14.9703488,10.1218023 L15.4877907,11.3892442 L23.2924419,32.2061047 L27.2656977,24.2665698 L31.6360465,24.2665698 C32.3709302,22.8223837 33.8674419,21.8311047 35.5988372,21.8311047 C38.055814,21.8311047 40.047093,23.8223837 40.047093,26.2787791 C40.047093,28.7351744 38.055814,30.7270349 35.5988372,30.7270349 C33.8645349,30.7270349 32.3656977,29.731686 31.6319767,28.2834302 L29.8226744,28.2834302 L23.3569767,41.340407 L22.752907,42.490407 L22.2767442,41.2834302 L14.472093,20.468314 L10.4988372,28.3031977 L0,28.3031977 L0,33.4072674 C0,35.9578488 1.36046512,38.3142442 3.56918605,39.5898256 L18.7354651,48.3456395 C20.944186,49.6212209 23.6656977,49.6212209 25.8744186,48.3456395 L41.0401163,39.5898256 C43.2488372,38.3142442 44.6098837,35.9578488 44.6098837,33.4072674 L44.6098837,15.8950581 C44.6098837,13.3444767 43.2488372,10.9880814 41.0401163,9.7125" id="Imported-Layers-Copy-3" fill="#3BAFDA"></path>
                            <text id="Pulse" font-family="MyriadPro-Semibold, Myriad Pro" font-size="32" font-weight="500" letter-spacing="-1.66153848" fill="#FFFFFF">
                                <tspan x="51.2578462" y="42">Pulse</tspan>
                            </text>
                        </g>
                    </g>
                </g>
            </g>
        </g>
    </g>
</svg>